HIERARCHY
ROOT Root
{
  OFFSET 0.0 0.0 0.0
  CHANNELS 6 Xposition Yposition Zposition Zrotation Yrotation Xrotation
  JOINT Hips
  {
    OFFSET 0.0 100.0 0.0
    CHANNELS 6 Xposition Yposition Zposition Zrotation Yrotation Xrotation
    JOINT Spine1
    {
      OFFSET 5.003913 -0.037094 -0.013727
      CHANNELS 3 Zrotation Yrotation Xrotation
      JOINT Spine2
      {
        OFFSET 7.125363 -1e-06 0.0
        CHANNELS 3 Zrotation Yrotation Xrotation
        JOINT Chest
        {
          OFFSET 7.594027 1e-06 0.0
          CHANNELS 3 Zrotation Yrotation Xrotation
          JOINT Neck1
          {
            OFFSET 26.313086 -0.460272 -0.181672
            CHANNELS 3 Zrotation Yrotation Xrotation
            JOINT Neck2
            {
              OFFSET 8.045911 0.0 0.0
              CHANNELS 3 Zrotation Yrotation Xrotation
              JOINT Head
              {
                OFFSET 6.432774 0.0 0.0
                CHANNELS 3 Zrotation Yrotation Xrotation
                JOINT HeadEnd
                {
                  OFFSET 16.169773 0.06451 0.00362
                  CHANNELS 3 Zrotation Yrotation Xrotation
                }
                JOINT Jaw
                {
                  OFFSET 0.108741 3.12938 0.002639
                  CHANNELS 3 Zrotation Yrotation Xrotation
                }
                JOINT LeftEye
                {
                  OFFSET 4.45173 8.166359 3.206392
                  CHANNELS 3 Zrotation Yrotation Xrotation
                }
                JOINT RightEye
                {
                  OFFSET 4.436895 8.135758 -3.222429
                  CHANNELS 3 Zrotation Yrotation Xrotation
                }
              }
            }
          }
          JOINT LeftShoulder
          {
            OFFSET 23.218927 5.195579 1.621656
            CHANNELS 3 Zrotation Yrotation Xrotation
            JOINT LeftArm
            {
              OFFSET 15.902118 2e-06 -2e-06
              CHANNELS 3 Zrotation Yrotation Xrotation
              JOINT LeftForeArm
              {
                OFFSET 28.739307 0.0 -1e-06
                CHANNELS 3 Zrotation Yrotation Xrotation
                JOINT LeftHand
                {
                  OFFSET 27.093981 -4e-06 0.0
                  CHANNELS 3 Zrotation Yrotation Xrotation
                  JOINT LeftHandThumb1
                  {
                    OFFSET 2.276781 3.380274 0.83384
                    CHANNELS 3 Zrotation Yrotation Xrotation
                    JOINT LeftHandThumb2
                    {
                      OFFSET 4.705309 -1e-06 -1e-06
                      CHANNELS 3 Zrotation Yrotation Xrotation
                      JOINT LeftHandThumb3
                      {
                        OFFSET 2.798515 0.0 3e-06
                        CHANNELS 3 Zrotation Yrotation Xrotation
                        JOINT LeftHandThumbEnd
                        {
                          OFFSET 3.180793 4e-06 -4e-06
                          CHANNELS 3 Zrotation Yrotation Xrotation
                        }
                      }
                    }
                  }
                  JOINT LeftHandIndex1
                  {
                    OFFSET 3.247786 2.352677 0.137192
                    CHANNELS 3 Zrotation Yrotation Xrotation
                    JOINT LeftHandIndex2
                    {
                      OFFSET 6.367095 1e-06 0.0
                      CHANNELS 3 Zrotation Yrotation Xrotation
                      JOINT LeftHandIndex3
                      {
                        OFFSET 3.662364 0.0 0.0
                        CHANNELS 3 Zrotation Yrotation Xrotation
                        JOINT LeftHandIndex4
                        {
                          OFFSET 2.329242 4e-06 -4e-06
                          CHANNELS 3 Zrotation Yrotation Xrotation
                          JOINT LeftHandIndexEnd
                          {
                            OFFSET 2.767823 1e-06 0.0
                            CHANNELS 3 Zrotation Yrotation Xrotation
                          }
                        }
                      }
                    }
                  }
                  JOINT LeftHandMiddle1
                  {
                    OFFSET 3.163612 0.945023 -0.406112
                    CHANNELS 3 Zrotation Yrotation Xrotation
                    JOINT LeftHandMiddle2
                    {
                      OFFSET 6.276789 3e-06 0.0
                      CHANNELS 3 Zrotation Yrotation Xrotation
                      JOINT LeftHandMiddle3
                      {
                        OFFSET 4.35652 -1e-06 4e-06
                        CHANNELS 3 Zrotation Yrotation Xrotation
                        JOINT LeftHandMiddle4
                        {
                          OFFSET 2.996877 0.0 8e-06
                          CHANNELS 3 Zrotation Yrotation Xrotation
                          JOINT LeftHandMiddleEnd
                          {
                            OFFSET 2.323256 3e-06 -4e-06
                            CHANNELS 3 Zrotation Yrotation Xrotation
                          }
                        }
                      }
                    }
                  }
                  JOINT LeftHandRing1
                  {
                    OFFSET 2.882606 -0.309162 0.107445
                    CHANNELS 3 Zrotation Yrotation Xrotation
                    JOINT LeftHandRing2
                    {
                      OFFSET 6.033198 0.0 4e-06
                      CHANNELS 3 Zrotation Yrotation Xrotation
                      JOINT LeftHandRing3
                      {
                        OFFSET 4.350578 3e-06 0.0
                        CHANNELS 3 Zrotation Yrotation Xrotation
                        JOINT LeftHandRing4
                        {
                          OFFSET 2.651321 2e-06 -7e-06
                          CHANNELS 3 Zrotation Yrotation Xrotation
                          JOINT LeftHandRingEnd
                          {
                            OFFSET 1.937663 1e-06 -4e-06
                            CHANNELS 3 Zrotation Yrotation Xrotation
                          }
                        }
                      }
                    }
                  }
                  JOINT LeftHandPinky1
                  {
                    OFFSET 2.865315 -1.525436 0.575687
                    CHANNELS 3 Zrotation Yrotation Xrotation
                    JOINT LeftHandPinky2
                    {
                      OFFSET 5.54936 1e-06 -8e-06
                      CHANNELS 3 Zrotation Yrotation Xrotation
                      JOINT LeftHandPinky3
                      {
                        OFFSET 3.070974 0.0 -4e-06
                        CHANNELS 3 Zrotation Yrotation Xrotation
                        JOINT LeftHandPinky4
                        {
                          OFFSET 1.549672 1e-06 0.0
                          CHANNELS 3 Zrotation Yrotation Xrotation
                          JOINT LeftHandPinkyEnd
                          {
                            OFFSET 1.952123 0.0 0.0
                            CHANNELS 3 Zrotation Yrotation Xrotation
                          }
                        }
                      }
                    }
                  }
                }
              }
            }
          }
          JOINT RightShoulder
          {
            OFFSET 23.161716 5.296122 -1.380114
            CHANNELS 3 Zrotation Yrotation Xrotation
            JOINT RightArm
            {
              OFFSET -16.027195 -2e-06 1.1e-05
              CHANNELS 3 Zrotation Yrotation Xrotation
              JOINT RightForeArm
              {
                OFFSET -28.736639 4e-06 2e-06
                CHANNELS 3 Zrotation Yrotation Xrotation
                JOINT RightHand
                {
                  OFFSET -27.133619 6e-06 0.0
                  CHANNELS 3 Zrotation Yrotation Xrotation
                  JOINT RightHandThumb1
                  {
                    OFFSET -2.274328 -3.351035 -0.83067
                    CHANNELS 3 Zrotation Yrotation Xrotation
                    JOINT RightHandThumb2
                    {
                      OFFSET -4.703594 -3e-06 2e-06
                      CHANNELS 3 Zrotation Yrotation Xrotation
                      JOINT RightHandThumb3
                      {
                        OFFSET -2.794935 -4e-06 -3e-06
                        CHANNELS 3 Zrotation Yrotation Xrotation
                        JOINT RightHandThumbEnd
                        {
                          OFFSET -3.183852 4e-06 1e-06
                          CHANNELS 3 Zrotation Yrotation Xrotation
                        }
                      }
                    }
                  }
                  JOINT RightHandIndex1
                  {
                    OFFSET -3.253496 -2.33755 -0.127667
                    CHANNELS 3 Zrotation Yrotation Xrotation
                    JOINT RightHandIndex2
                    {
                      OFFSET -6.344434 0.0 0.0
                      CHANNELS 3 Zrotation Yrotation Xrotation
                      JOINT RightHandIndex3
                      {
                        OFFSET -3.654871 0.0 -8e-06
                        CHANNELS 3 Zrotation Yrotation Xrotation
                        JOINT RightHandIndex4
                        {
                          OFFSET -2.327586 -1e-06 0.0
                          CHANNELS 3 Zrotation Yrotation Xrotation
                          JOINT RightHandIndexEnd
                          {
                            OFFSET -2.770001 3e-06 8e-06
                            CHANNELS 3 Zrotation Yrotation Xrotation
                          }
                        }
                      }
                    }
                  }
                  JOINT RightHandMiddle1
                  {
                    OFFSET -3.168223 -0.944764 0.411762
                    CHANNELS 3 Zrotation Yrotation Xrotation
                    JOINT RightHandMiddle2
                    {
                      OFFSET -6.266691 -1e-06 -4e-06
                      CHANNELS 3 Zrotation Yrotation Xrotation
                      JOINT RightHandMiddle3
                      {
                        OFFSET -4.348901 0.0 0.0
                        CHANNELS 3 Zrotation Yrotation Xrotation
                        JOINT RightHandMiddle4
                        {
                          OFFSET -3.00024 2e-06 -4e-06
                          CHANNELS 3 Zrotation Yrotation Xrotation
                          JOINT RightHandMiddleEnd
                          {
                            OFFSET -2.321477 -4e-06 -4e-06
                            CHANNELS 3 Zrotation Yrotation Xrotation
                          }
                        }
                      }
                    }
                  }
                  JOINT RightHandRing1
                  {
                    OFFSET -2.885654 0.293261 -0.119232
                    CHANNELS 3 Zrotation Yrotation Xrotation
                    JOINT RightHandRing2
                    {
                      OFFSET -6.032835 -1e-06 -4e-06
                      CHANNELS 3 Zrotation Yrotation Xrotation
                      JOINT RightHandRing3
                      {
                        OFFSET -4.33881 0.0 -4e-06
                        CHANNELS 3 Zrotation Yrotation Xrotation
                        JOINT RightHandRing4
                        {
                          OFFSET -2.654903 -4e-06 -4e-06
                          CHANNELS 3 Zrotation Yrotation Xrotation
                          JOINT RightHandRingEnd
                          {
                            OFFSET -1.935122 0.0 4e-06
                            CHANNELS 3 Zrotation Yrotation Xrotation
                          }
                        }
                      }
                    }
                  }
                  JOINT RightHandPinky1
                  {
                    OFFSET -2.866241 1.503904 -0.60527
                    CHANNELS 3 Zrotation Yrotation Xrotation
                    JOINT RightHandPinky2
                    {
                      OFFSET -5.553177 -2e-06 0.0
                      CHANNELS 3 Zrotation Yrotation Xrotation
                      JOINT RightHandPinky3
                      {
                        OFFSET -3.062664 -1e-06 -4e-06
                        CHANNELS 3 Zrotation Yrotation Xrotation
                        JOINT RightHandPinky4
                        {
                          OFFSET -1.546529 2e-06 4e-06
                          CHANNELS 3 Zrotation Yrotation Xrotation
                          JOINT RightHandPinkyEnd
                          {
                            OFFSET -1.952341 0.0 -4e-06
                            CHANNELS 3 Zrotation Yrotation Xrotation
                          }
                        }
                      }
                    }
                  }
                }
              }
            }
          }
        }
      }
    }
    JOINT LeftLeg
    {
      OFFSET -8.443107 2.567604 10.043214
      CHANNELS 3 Zrotation Yrotation Xrotation
      JOINT LeftShin
      {
        OFFSET 43.229198 1e-06 -1e-06
        CHANNELS 3 Zrotation Yrotation Xrotation
        JOINT LeftFoot
        {
          OFFSET 42.298611 1e-06 1e-06
          CHANNELS 3 Zrotation Yrotation Xrotation
          JOINT LeftToeBase
          {
            OFFSET 14.165858 1e-06 0.0
            CHANNELS 3 Zrotation Yrotation Xrotation
            JOINT LeftToeEnd
            {
              OFFSET 6.7141 -0.234461 0.0
              CHANNELS 3 Zrotation Yrotation Xrotation
            }
          }
        }
      }
    }
    JOINT RightLeg
    {
      OFFSET -8.303923 2.592729 -10.047278
      CHANNELS 3 Zrotation Yrotation Xrotation
      JOINT RightShin
      {
        OFFSET -43.369682 0.0 1e-06
        CHANNELS 3 Zrotation Yrotation Xrotation
        JOINT RightFoot
        {
          OFFSET -42.260784 4e-06 2e-06
          CHANNELS 3 Zrotation Yrotation Xrotation
          JOINT RightToeBase
          {
            OFFSET -14.222245 -2e-06 -1e-06
            CHANNELS 3 Zrotation Yrotation Xrotation
            JOINT RightToeEnd
            {
              OFFSET -6.660062 0.232574 -2e-06
              CHANNELS 3 Zrotation Yrotation Xrotation
            }
          }
        }
      }
    }
  }
}
MOTION
Frames: 4
Frame Time: 0.03333333333333333
0.0 0.0 0.0 0.0 -0.0 0.0 -17.485756 92.649063 296.513733 89.794113 9.325115 94.503647 4.653975 -1.392764 -1.279425 -9.275606 -0.849948 -3.049429 16.837938 1.337818 -5.15073 22.518518 1.890658 2.503015 -2.61949 -0.862633 -0.171237 -39.001995 -0.262443 -1.403064 0.006693 -0.000247 0.001252 0.073002 0.004489 -0.069292 -0.06894 -0.024284 -0.100949 -0.120788 0.02778 -0.031198 -103.110878 -76.155121 121.082764 31.024605 -45.720711 -2.590698 113.173775 -0.52905 0.128132 -0.581035 -6.110455 16.205999 17.620285 -26.295225 52.363251 -19.466543 -14.398823 29.424509 0.005226 -8.776556 0.00052 15.884093 -18.800982 5.871034 -0.616594 -1.780646 -3.90764 -4.798489 -11.06228 -2.93221 -0.013397 -20.966778 0.020447 -5.011088 -25.037718 -4.034808 -0.008476 0.003205 0.011058 -10.636805 -5.68627 -3.572494 10.576083 -17.926781 -3.109014 -9.5e-05 -13.812333 -0.006169 -0.497093 -31.19108 -4.033364 -11.857074 -59.843216 7.461539 -13.983525 -7.145657 -2.883454 13.778274 -8.426832 -3.217834 0.375578 -34.231308 0.765392 -0.965269 -17.743443 2.635041 0.001579 0.002541 -0.003292 -17.34417 -20.095129 -4.195235 21.753042 -1.647742 3.839964 0.000851 -6.333236 0.015262 -1.684514 -22.606302 -6.177333 -0.00042 -0.001215 -5.6e-05 73.527275 -70.081161 129.087875 -2.054107 -45.46463 29.2516 97.142097 -0.010337 -0.403617 7.442593 7.380259 12.020766 22.187645 -20.421289 50.010426 -16.740463 -16.750647 28.527111 0.001389 -12.699965 0.010639 15.409112 -17.810106 2.987292 -0.104902 -1.51463 -4.302619 -5.031892 -5.616599 -2.943543 0.001469 -11.026335 0.005966 -6.117671 -15.919927 -3.860765 0.006373 -0.000191 -0.000645 -10.284546 -5.678965 -4.35168 11.044054 -11.326214 -2.388757 -1.370237 -14.263461 -6.323959 -0.601648 -26.977417 -3.843847 -4.176911 -49.921104 -3.630177 -13.710638 -7.360348 -3.724494 18.162954 -14.05678 -3.271355 0.004818 -18.803123 -0.000648 -0.426458 -8.467602 2.567896 0.00362 0.003872 -0.005076 -15.922901 -20.121687 -5.499047 30.442141 -7.217472 1.729434 0.005327 -8.154387 0.002598 -1.854692 -22.887693 -6.168972 -0.008363 0.006237 0.009316 -174.14325 -7.238343 -5.97929 55.32003 -0.817319 0.743878 -88.320679 7.374661 -2.074656 -23.679003 1.957602 1.99895 -0.989812 -0.001292 -0.000989 -30.627111 -5.209136 -10.891154 22.904158 0.127384 0.065007 -76.586983 -5.192842 -3.087855 -9.46654 0.904197 1.616618 -0.987919 -0.000392 -0.000257 
0.0 0.0 0.0 0.0 -0.0 0.0 -18.597755 92.178032 305.625671 92.061157 9.804026 96.86142 4.071656 -1.992973 -1.497988 -9.462487 -0.839663 -3.375651 16.363529 0.548272 -6.034451 23.725241 1.691759 2.601283 -2.577471 -0.918621 -1.107283 -38.008148 -0.429589 -1.789064 0.007755 -9.8e-05 0.001242 0.035789 0.022234 -0.002097 -0.071435 -0.00596 -0.029255 -0.119484 0.04032 0.028712 -95.200821 -77.439995 113.480553 29.035633 -47.580055 0.536588 114.311684 -0.537757 -0.115181 -1.096968 -7.577483 13.812926 17.598436 -26.377937 52.571651 -19.506968 -14.447698 29.492931 0.019744 -8.778664 0.003966 15.876105 -18.888874 5.946342 -0.604558 -1.800368 -3.912909 -4.829387 -11.08426 -2.94069 -0.016793 -21.005941 -0.003656 -5.067556 -25.087944 -4.034206 0.00231 -0.000506 -0.002969 -10.663918 -5.698745 -3.557752 10.587036 -17.972475 -3.14123 -0.008901 -13.859216 -0.007701 -0.517094 -31.274904 -4.064396 -12.335171 -60.340809 7.686504 -14.019105 -7.179904 -2.88335 13.797414 -8.41214 -3.235257 0.321994 -34.333549 0.772547 -0.957509 -17.786686 2.610175 -0.012348 -0.002233 0.007034 -17.399731 -20.175966 -4.217153 21.812784 -1.62159 3.872674 -0.004325 -6.362652 0.015196 -1.70403 -22.650827 -6.224012 0.006171 0.000696 0.002479 85.619644 -69.716736 117.11422 -8.691288 -48.358612 36.067284 99.731438 0.172627 -0.141396 6.054328 7.334297 12.189754 22.172556 -20.381588 50.067791 -16.777657 -16.778763 28.571905 -0.009072 -12.698406 0.005034 15.42581 -17.675589 2.833594 -0.105473 -1.515239 -4.285137 -5.046169 -5.624767 -2.969656 0.006478 -11.034359 -7.5e-05 -6.081168 -15.909601 -3.845351 -0.01588 -0.007467 -0.00662 -10.291691 -5.679924 -4.356291 11.043628 -11.324215 -2.386671 -1.382139 -14.259782 -6.328586 -0.601109 -26.94993 -3.835412 -3.987182 -49.531971 -4.056872 -13.73637 -7.37251 -3.726161 18.175995 -14.058782 -3.261309 0.010824 -18.805136 -0.005371 -0.417868 -8.438434 2.552076 -0.002672 0.003666 0.002722 -15.947824 -20.121336 -5.499628 30.465742 -7.200068 1.721048 0.008385 -8.178652 -0.005233 -1.85408 -22.848242 -6.178023 -0.000184 -0.000985 -0.001971 -169.891541 -8.211912 -6.393746 57.055843 -1.178382 0.92671 -82.510155 11.691141 -2.202915 -22.59869 1.90661 2.060332 -1.00519 0.000338 0.002128 -28.835257 -8.130312 -10.028696 10.958368 -0.00554 0.014367 -75.843933 -3.521033 -3.735524 -9.019511 0.787097 1.595346 -1.000564 -0.001795 0.00033 
0.0 0.0 0.0 0.0 -0.0 0.0 -19.633499 90.689888 314.84906 94.496361 10.561551 99.659515 3.684464 -2.53519 -1.528916 -9.393296 -0.84567 -3.330199 16.183361 -0.46663 -7.029106 24.621058 1.51621 2.586449 -2.558526 -0.934079 -1.890615 -37.58083 -0.860492 -2.564723 -0.002813 -9.3e-05 0.000505 -0.00229 0.015949 0.04397 -0.054907 -0.022437 0.023177 -0.113841 0.039778 0.06552 -88.327293 -77.429863 107.269852 27.379709 -47.992462 3.709056 113.84874 -0.028747 -0.039797 -2.373226 -8.160002 13.087783 17.617651 -26.359194 52.381454 -19.47262 -14.404223 29.376709 -0.022957 -8.781241 0.012065 15.53027 -18.922976 6.154938 -0.602308 -1.790636 -3.882941 -4.796409 -11.064175 -2.935653 0.01208 -20.985579 0.030991 -4.996767 -25.026068 -4.000199 -0.001414 -0.003788 -0.002264 -10.622558 -5.674068 -3.539728 10.582905 -17.9431 -3.111716 0.013184 -13.815738 -0.000444 -0.475496 -31.170713 -4.010886 -12.555671 -60.101089 7.801791 -13.979487 -7.132782 -2.861043 13.782457 -8.420683 -3.208542 0.388753 -34.273792 0.773192 -0.939217 -17.757357 2.624625 -0.004046 0.003266 -0.007927 -17.315411 -20.080276 -4.171467 21.729876 -1.653423 3.845998 0.009999 -6.333318 0.000815 -1.693114 -22.603249 -6.174265 -0.000908 8.5e-05 -0.002826 95.810349 -68.82502 106.327454 -14.990806 -51.358486 42.806988 101.974968 0.149398 0.078379 4.974132 7.814434 12.143988 22.162365 -20.409998 49.995209 -16.722801 -16.750935 28.506588 0.002939 -12.706128 0.028062 15.471127 -17.68008 2.713124 -0.087248 -1.512486 -4.284959 -5.04393 -5.619458 -2.957253 0.008791 -11.013309 -0.002428 -6.091378 -15.905255 -3.836213 -0.000204 0.007577 -0.006157 -10.260698 -5.674076 -4.340735 11.027084 -11.312793 -2.393324 -1.370189 -14.239881 -6.323809 -0.60373 -26.939726 -3.817457 -4.224799 -49.217072 -4.014828 -13.683341 -7.353984 -3.73062 18.130873 -14.051346 -3.257396 0.007773 -18.787012 0.004128 -0.431647 -8.453971 2.560606 -0.000951 -0.000291 -0.000397 -15.880112 -20.094679 -5.501199 30.401196 -7.219449 1.720365 0.005554 -8.163287 -0.002524 -1.847668 -22.874731 -6.155722 0.006615 -0.005968 0.002445 -167.772964 -9.024958 -5.247445 62.047913 -1.455638 0.912776 -82.050743 12.989279 -3.432223 -16.147972 1.790235 2.186991 -1.015903 0.001604 0.001013 -26.69503 -11.651211 -9.544785 6.175211 -0.062039 0.198764 -77.168793 -2.284932 -5.98655 -8.532404 0.835981 1.497635 -1.005434 -0.002389 -0.000433 
0.0 0.0 0.0 0.0 -0.0 0.0 -20.530228 88.531532 323.818146 95.588463 10.714395 102.289276 3.062435 -1.965341 -1.556508 -9.406117 -0.796983 -3.112425 16.40855 -1.359065 -7.304717 24.53602 1.321013 2.889112 -2.546984 -0.72988 -3.224654 -36.82864 -1.270333 -3.090998 0.009497 -0.000307 -0.001179 -0.021891 -0.01643 -0.005759 0.0324 -0.109962 -0.017477 0.007798 0.058777 0.002278 -91.584572 -77.129807 110.833855 26.113306 -46.637066 6.590279 111.389832 0.233938 -0.130555 -4.043673 -8.10834 13.930855 17.758465 -26.313774 52.404377 -19.464859 -14.353076 29.40123 0.005414 -8.790275 -0.005098 15.388438 -18.421936 6.145957 -0.594693 -1.813156 -3.922382 -4.820435 -11.044699 -2.918251 0.012903 -21.008085 -0.026719 -5.027189 -25.06048 -4.037751 -6.9e-05 0.000463 -0.001352 -10.63072 -5.687627 -3.598645 10.574089 -17.940281 -3.098903 0.01448 -13.843091 0.001833 -0.484911 -31.229059 -4.045209 -12.179601 -60.005405 7.663048 -13.981256 -7.152571 -2.906307 13.790992 -8.434325 -3.224011 0.337702 -34.233021 0.780273 -0.94423 -17.744583 2.620231 0.007627 0.004303 -0.003934 -17.339394 -20.124102 -4.244688 21.742451 -1.642218 3.896359 0.017233 -6.351455 -0.011315 -1.698248 -22.599783 -6.192792 0.007226 -0.000254 -0.005539 97.586868 -68.026085 104.743973 -17.689907 -52.036076 45.595009 103.58252 -0.234682 0.233055 5.295748 8.507575 11.736855 22.196108 -20.397367 49.917004 -16.65605 -16.710714 28.419624 0.006766 -12.685262 0.000992 15.288542 -17.454987 2.64122 -0.108346 -1.510109 -4.270885 -5.029667 -5.618991 -2.942358 0.001136 -11.013074 0.010081 -6.112505 -15.883797 -3.822039 0.016374 -0.009691 0.014714 -10.279021 -5.674607 -4.321481 11.01404 -11.302494 -2.360778 -1.376212 -14.236617 -6.313395 -0.664207 -26.942007 -3.799512 -4.845719 -48.730183 -3.449277 -13.707894 -7.355889 -3.707739 18.12908 -14.045894 -3.233792 -0.012662 -18.770308 0.00836 -0.420691 -8.462584 2.555254 0.001117 -0.000807 0.000368 -15.92231 -20.08827 -5.463324 30.389456 -7.197028 1.759555 0.004483 -8.151628 -0.000383 -1.874434 -22.851923 -6.158191 -0.004071 0.006704 -0.0 -168.959381 -11.021555 -3.800114 69.654938 -1.554452 0.862139 -85.646736 11.314354 -3.442515 -11.629384 1.608468 2.091735 -0.994168 -0.000587 -0.002972 -24.469599 -13.808962 -10.923818 6.378391 0.29801 0.663954 -75.9562 -1.311288 -7.59475 -9.29517 0.997789 1.510468 -1.009378 0.001486 0.000633 
